<?xml version="1.0" encoding="utf-8"?>
<!-- Generator: Adobe Illustrator 25.4.1, SVG Export Plug-In . SVG Version: 6.00 Build 0)  -->
<svg version="1.1" id="Layer_1" xmlns="http://www.w3.org/2000/svg" xmlns:xlink="http://www.w3.org/1999/xlink" x="0px" y="0px"
	 viewBox="0 0 480.6 477.3" style="enable-background:new 0 0 480.6 477.3;" xml:space="preserve">
<style type="text/css">
	.st0{fill:#FFFFFF;}
	.st1{fill:#878787;}
	.st2{fill:url(#SVGID_1_);stroke:#878787;stroke-linejoin:round;stroke-miterlimit:10;}
	
		.st3{fill:url(#SVGID_00000023275188531719684450000013499084544729893803_);stroke:#878787;stroke-linejoin:round;stroke-miterlimit:10;}
	.st4{fill:#FFFFFF;stroke:#878787;stroke-miterlimit:10;}
	.st5{fill:#575756;}
	.st6{fill:url(#SVGID_00000034799301028842522020000012671258884073359547_);}
	
		.st7{fill:url(#SVGID_00000007422905662068432840000014050959956997040317_);stroke:url(#SVGID_00000007411323575729547830000011753366328297046931_);stroke-width:2;stroke-miterlimit:10;}
	
		.st8{fill:url(#SVGID_00000168106316295480622810000009698697229336678309_);stroke:url(#SVGID_00000021115587578227831250000017508577335830942895_);stroke-width:2;stroke-miterlimit:10;}
	
		.st9{fill:url(#SVGID_00000033352979222146240240000002243666438870558126_);stroke:url(#SVGID_00000034798339286248078930000015986138600119427234_);stroke-width:2;stroke-miterlimit:10;}
	
		.st10{fill:url(#SVGID_00000025402144876932952120000011275483044068473259_);stroke:url(#SVGID_00000054228270890082887400000010235486865184695973_);stroke-width:2;stroke-miterlimit:10;}
	
		.st11{fill:url(#SVGID_00000095315454260918171030000010984379427493276801_);stroke:url(#SVGID_00000003092147847281256470000002026789499256461753_);stroke-width:2;stroke-miterlimit:10;}
	
		.st12{fill:url(#SVGID_00000059990555357144683640000002562461721316674731_);stroke:url(#SVGID_00000034770615694720828770000012457875696420955822_);stroke-width:2;stroke-miterlimit:10;}
	
		.st13{fill:url(#SVGID_00000026872515295077802330000010631476770350880648_);stroke:url(#SVGID_00000078008562353797047800000017809992894112662446_);stroke-width:2;stroke-miterlimit:10;}
	
		.st14{fill:url(#SVGID_00000053538302373666958940000000954897735140051355_);stroke:url(#SVGID_00000079451488310622779430000000352721286047891610_);stroke-width:2;stroke-miterlimit:10;}
	
		.st15{fill:url(#SVGID_00000083065795377797330180000008827060665476956053_);stroke:url(#SVGID_00000029014369193650853110000010827630709654493617_);stroke-width:2;stroke-miterlimit:10;}
	
		.st16{fill:url(#SVGID_00000106844198487698941470000012108363320537617029_);stroke:url(#SVGID_00000132079125458435895570000008775758507143838086_);stroke-width:2;stroke-miterlimit:10;}
	.st17{fill:url(#SVGID_00000170246692759288323810000012652710013608847494_);}
	.st18{fill:url(#SVGID_00000096780624054145565390000007126138888729116596_);}
	.st19{fill:#E1251B;}
</style>
<g>
	<path class="st0" d="M236.8,475.9c-0.2,0-0.4-0.1-0.5-0.3l-10.5-25.8l-49-124.5h-17.6c-0.2,0-0.4-0.1-0.5-0.3l-2.7-6.9
		c-3.2,2.4-6.3,4.2-9.2,5.3l-0.1,0c-2.1,0.8-4.4,1.3-6.8,1.3c-3.2,0-6.6-0.8-9.7-2.3c-3.7,2.9-7.3,5.1-10.7,6.4
		c-2.1,0.9-4.5,1.3-6.9,1.3c-6.8,0-14-3.6-18.6-9.2c-2.1,2.8-4.4,5.3-6.6,7.5c-7.5,7.4-17.3,11.9-26.1,11.9c-4.5,0-8.6-1.1-12.1-3.2
		c-4.1-2.5-7.3-6.7-9.8-13.4c-1.8-4.2-1.4-9.1,1-12.9c2.5-4,6.8-6.4,11.6-6.4c5,0,9.6,2.7,12.1,7.2c0.8-0.4,2.1-1.2,3.5-2.5
		c7-7.3,14.9-23.9,21.9-45.5h-6c-1.9,1.8-3.6,3.6-5,5.2c-2.2,2.6-3.7,4.8-3.9,6.6c0.1,0.2,0.2,0.5,0.4,0.8l0.2,0.3
		c2.6,4.4,2.7,9.7,0.3,14c-2.4,4.2-6.8,6.8-11.6,6.8c-3.4,0-6.7-1.3-9.3-3.7l-0.2-0.2c-5.4-5.2-7.2-13.4-7.5-15
		c-1-4.8-0.5-9.8,1.4-14.9H12.8c-6.4,0-11.7-5.2-11.7-11.7V132.8c0-6.4,5.2-11.7,11.7-11.7h65.6L71,102.4c-0.1-0.2,0-0.3,0.1-0.5
		c0.1-0.1,0.2-0.2,0.4-0.2h41.5L94.1,52.8c0-0.1,0-0.3,0-0.4c0.1-0.1,0.2-0.2,0.3-0.3l11.4-3.7C135.7,39,169.6,33,206.7,30.9
		L195.7,1.6c-0.1-0.2,0-0.3,0.1-0.5c0.1-0.1,0.2-0.2,0.4-0.2h81.1c0.2,0,0.3,0.1,0.4,0.2c0.1,0.1,0.1,0.3,0.1,0.5l-10.9,29.3
		c37.1,2.1,71,8.1,100.8,17.6l11.4,3.7c0.1,0,0.2,0.1,0.3,0.3s0.1,0.3,0,0.4l-18.8,48.8h41.5c0.2,0,0.3,0.1,0.4,0.2
		c0.1,0.1,0.1,0.3,0.1,0.5l-7.4,18.7h65.6c6.4,0,11.7,5.2,11.7,11.7v94.9c3.5,3.4,5.8,7.8,6.6,12.6c0.4,2.4,0.4,4.8,0.1,7
		c-0.7,4.9-3.2,9.1-6.9,12c-2.1,1.8-4.5,3-7,3.5c-1.3,0.5-2.8,0.8-4.3,0.8h-46.2c-7.2,4.8-13.2,10-17.8,15.4l-0.2,0.3l-0.3,0.3
		c-0.8,0.9-3.4,3.5-7.9,4.3c-0.7,0.1-1.4,0.2-2.1,0.2c-2.4,4.3-5.2,8.5-8.2,12.4l-0.1,0.2c-6.6,8.2-11.8,13.3-16.8,16.3l-0.2,0.1
		c-3.4,2-6.8,3.3-10.3,3.9c-1.6,0.3-3.2,0.4-4.8,0.4c-3.9,0-7.9-0.9-12.1-2.7l-0.2-0.1c-2.7-1.2-7.5-4.2-10.4-10.7l-8.3,21
		c-0.1,0.2-0.3,0.3-0.5,0.3h-17.6l-49,124.5l-10.6,25.8C237.2,475.8,237,475.9,236.8,475.9z"/>
	<path class="st1" d="M277.3,1.4l-11.2,29.9c36.9,2.1,71.5,8.1,101.4,17.7l11.4,3.7l-19.1,49.5h42.2l-7.7,19.4h66.3
		c6.1,0,11.2,5,11.2,11.2v95.1c3.5,3.3,5.8,7.6,6.6,12.5c0.4,2.3,0.4,4.7,0.1,6.9c-0.7,4.8-3.1,8.9-6.8,11.7c-1.2,1-3.5,2.8-6.8,3.4
		c0,0,0,0,0,0c-1.3,0.5-2.7,0.8-4.2,0.8h-46.3c-7.3,4.9-13.3,10.1-18,15.5l-0.2,0.3l-0.2,0.2c-0.8,0.8-3.2,3.4-7.6,4.2
		c-0.8,0.1-1.6,0.2-2.4,0.2c-2.2,3.9-4.9,8.2-8.3,12.6l-0.1,0.2c-6.6,8.2-11.7,13.2-16.7,16.2l-0.2,0.1c-3.3,2-6.7,3.2-10.2,3.9
		c-1.5,0.3-3.1,0.4-4.7,0.4c-3.9,0-7.8-0.9-11.9-2.7l-0.2-0.1c-3.1-1.4-7.9-4.6-10.6-11.5l-8.7,22.2h-18l-49.1,124.8l-10.5,25.8
		l-10.5-25.8l-49.1-124.8h-18l-3-7.5c-2.8,2.2-6.1,4.3-9.6,5.7l-0.1,0c-2.1,0.8-4.3,1.2-6.7,1.2c-3.3,0-6.7-0.9-9.8-2.4
		c-3.1,2.5-6.8,5-10.8,6.6c-2.1,0.8-4.3,1.2-6.7,1.2c0,0,0,0,0,0c-6.7,0-14-3.6-18.6-9.5c-2.2,3-4.5,5.7-6.9,8
		c-7.4,7.3-17,11.7-25.8,11.7c-4.4,0-8.4-1.1-11.9-3.1c-4-2.4-7.1-6.6-9.6-13.1c-1.7-4.1-1.4-8.7,0.9-12.4c2.4-3.9,6.6-6.2,11.1-6.2
		c5,0,9.5,2.8,11.8,7.3c1.1-0.4,2.6-1.3,4-2.8c7.3-7.6,15.3-24.6,22.2-46.4H83c-1.9,1.8-3.6,3.6-5.2,5.4c-2.3,2.8-3.8,5-4,7
		c0.1,0.2,0.2,0.6,0.5,1l0.2,0.3c2.5,4.2,2.6,9.4,0.3,13.5c-2.3,4-6.5,6.5-11.2,6.5c-3.3,0-6.5-1.3-8.9-3.5l-0.2-0.1
		c-5.3-5.1-7.1-13.2-7.4-14.7c-1.1-5.6-0.2-10.7,1.6-15.3H12.8c-6.1,0-11.2-5-11.2-11.2V132.8c0-6.1,5-11.2,11.2-11.2h66.3
		l-7.7-19.4h42.2L94.6,52.7L106,49c29.9-9.6,64.5-15.6,101.4-17.7L196.2,1.4h29.2h22.7H277.3 M277.3,0.4h-29.2h-22.7h-29.2
		c-0.3,0-0.6,0.2-0.8,0.4c-0.2,0.3-0.2,0.6-0.1,0.9L206,30.4c-36.9,2.2-70.6,8.1-100.3,17.6l-11.4,3.7c-0.3,0.1-0.5,0.3-0.6,0.5
		c-0.1,0.2-0.1,0.5,0,0.8l18.6,48.2H71.4c-0.3,0-0.6,0.2-0.8,0.4c-0.2,0.3-0.2,0.6-0.1,0.9l7.1,18.1H12.8c-6.7,0-12.2,5.5-12.2,12.2
		v119.2c0,6.7,5.5,12.2,12.2,12.2h34.6c-1.7,4.9-2.1,9.8-1.2,14.5c0.3,1.6,2.2,10,7.7,15.3l0.2,0.2c2.7,2.5,6.1,3.8,9.6,3.8
		c5,0,9.6-2.7,12-7c2.5-4.4,2.4-10-0.3-14.5l-0.2-0.3c-0.1-0.2-0.2-0.4-0.3-0.6c0.2-1.7,1.7-3.7,3.7-6.2c1.4-1.6,3-3.3,4.8-5.1h5.1
		c-6.9,21.2-14.7,37.5-21.6,44.7c-1.1,1.1-2.1,1.8-2.9,2.2c-2.6-4.3-7.2-7-12.3-7c-4.9,0-9.4,2.5-12,6.7c-2.5,4-2.8,9-1,13.3
		c2.6,6.8,5.7,11.1,10,13.6c3.6,2.2,7.8,3.3,12.4,3.3c9,0,18.9-4.5,26.5-12c2.1-2.1,4.2-4.5,6.2-7.1c4.7,5.4,11.8,8.9,18.6,8.9
		c2.5,0,4.9-0.4,7.1-1.3c3.4-1.4,7-3.5,10.6-6.3c3.1,1.4,6.5,2.2,9.7,2.2c2.5,0,4.8-0.4,7-1.3l0.1,0c2.8-1.1,5.8-2.8,8.8-5l2.5,6.3
		c0.2,0.4,0.5,0.6,0.9,0.6h17.3L225.3,450l10.6,25.8c0.2,0.4,0.5,0.6,0.9,0.6s0.8-0.2,0.9-0.6l10.5-25.8l48.9-124.2h17.3
		c0.4,0,0.8-0.3,0.9-0.6l7.9-20c3,5.9,7.5,8.7,10.1,9.9l0.2,0.1c4.3,1.9,8.3,2.8,12.3,2.8c1.6,0,3.3-0.2,4.9-0.5c3.6-0.7,7-2,10.5-4
		l0.2-0.1c5.1-3.1,10.3-8.2,17-16.4l0.1-0.2c3-3.8,5.7-7.9,8.1-12.2c0.7,0,1.3-0.1,1.9-0.2c4.7-0.9,7.3-3.6,8.2-4.5l0.2-0.2
		c0,0,0,0,0,0l0.2-0.3c4.5-5.3,10.4-10.4,17.6-15.2h46c1.5,0,3-0.3,4.4-0.8c2.6-0.5,5.1-1.7,7.2-3.6c3.9-2.9,6.4-7.3,7.1-12.3
		c0.3-2.3,0.3-4.7-0.1-7.2c-0.8-4.9-3-9.3-6.5-12.7v-94.7c0-6.7-5.5-12.2-12.2-12.2h-64.8l7.1-18.1c0.1-0.3,0.1-0.7-0.1-0.9
		c-0.2-0.3-0.5-0.4-0.8-0.4h-40.8L379.9,53c0.1-0.3,0.1-0.5,0-0.8c-0.1-0.2-0.3-0.4-0.6-0.5L367.8,48
		c-29.7-9.5-63.4-15.5-100.3-17.6l10.7-28.6c0.1-0.3,0.1-0.7-0.1-0.9C278,0.6,277.7,0.4,277.3,0.4L277.3,0.4z"/>
</g>
<g>
	<linearGradient id="SVGID_1_" gradientUnits="userSpaceOnUse" x1="152.0925" y1="101.2724" x2="152.0925" y2="161.5129">
		<stop  offset="0" style="stop-color:#FFFFFF"/>
		<stop  offset="1" style="stop-color:#00953B"/>
	</linearGradient>
	<path class="st2" d="M88.1,113.5l78.7,200h49.3c-14.4-95.7-28.7-190.1-30.2-200H88.1z"/>
	
		<linearGradient id="SVGID_00000178906768954431168830000017838603138600227719_" gradientUnits="userSpaceOnUse" x1="321.449" y1="101.2724" x2="321.449" y2="149.6055">
		<stop  offset="0" style="stop-color:#FFFFFF"/>
		<stop  offset="1" style="stop-color:#E1251B"/>
	</linearGradient>
	
		<polygon style="fill:url(#SVGID_00000178906768954431168830000017838603138600227719_);stroke:#878787;stroke-linejoin:round;stroke-miterlimit:10;" points="
		385.5,113.5 287.6,113.5 257.4,313.5 306.7,313.5 	"/>
	<path class="st4" d="M185.9,113.5c1.5,9.9,15.7,104.3,30.2,200h41.3l30.2-200H185.9z"/>
</g>
<g>
	<g>
		<path class="st5" d="M18.8,133.4l23.9,43.5v-38h11.1v104.9H42.8v-46l-13-22.5v68.5h-11V133.4 M16.8,125.6v7.8v110.4v2h2h11h2v-2
			v-61l9,15.5v45.5v2h2h11.1h2v-2V138.9v-2h-2H42.8h-2v2v30.2l-20.2-36.7L16.8,125.6L16.8,125.6z"/>
	</g>
	<g>
		<path class="st5" d="M86.3,136.2c12.7,0,18.1,10.1,18.1,18.3v73.6c0,15.5-12.8,18.3-17.8,18.3c-8.8,0-18.2-5.5-18.2-18.3v-73.6
			C68.4,142.3,77.6,136.2,86.3,136.2 M86.6,234.7c6.8,0,6.8-6.4,6.8-9.7v-67.6c0-3.3,0-9.7-7-9.7c-7.1,0-7.1,6.6-7.1,9.7V225
			C79.3,228.7,79.3,234.7,86.6,234.7 M86.3,134.2c-9.9,0-19.9,7-19.9,20.3v73.6c0,14,10.5,20.3,20.2,20.3c6.8,0,19.8-4.2,19.8-20.3
			v-73.6C106.4,144.5,99.5,134.2,86.3,134.2L86.3,134.2z M86.6,232.7c-4.5,0-5.3-2.4-5.3-7.7v-67.6c0-4.9,0.8-7.7,5.1-7.7
			c4.2,0,5,2.7,5,7.7V225C91.4,230,90.7,232.7,86.6,232.7L86.6,232.7z"/>
	</g>
	<g>
		<path class="st5" d="M147.3,138.9v11.5h-12v93.4h-11.1v-93.4h-12v-11.5H147.3 M149.3,136.9h-2h-35h-2v2v11.5v2h2h10v91.4v2h2h11.1
			h2v-2v-91.4h10h2v-2v-11.5V136.9L149.3,136.9z"/>
	</g>
	<g>
		<path class="st5" d="M178.1,136.2c2.7,0,9.4,0.6,13.5,6.3c4,5.8,4,10.4,4,14.9v86.4h-11V222h-13.4v21.8h-11V222h-9.4l-6.4-10.7
			h15.8v-53.9C160.3,141.4,170.2,136.2,178.1,136.2 M171.2,211.3h13.4v-53.9c0-3.6,0-9.7-6.7-9.7c-6.7,0-6.7,6.3-6.7,9.7V211.3
			 M178.1,134.2c-9.9,0-19.8,7.2-19.8,23.2v51.9h-13.8H141l1.8,3l6.4,10.7l0.6,1h1.1h7.4v19.8v2h2h11h2v-2V224h9.4v19.8v2h2h11h2v-2
			v-86.4c0-4.6,0-9.7-4.3-16l0,0l0,0C188.6,134.9,181.1,134.2,178.1,134.2L178.1,134.2z M173.2,209.3v-51.9c0-5.1,0.7-7.7,4.7-7.7
			c4,0,4.7,2.5,4.7,7.7v51.9H173.2L173.2,209.3z"/>
	</g>
	<g>
		<path class="st5" d="M215.7,134.3c25.8,7.4,36,29.3,36,47.1c0,17-8.5,26.7-11.4,29.9c11.4,1.3,11.4,8.3,11.4,15.9v16.5h-11v-16.5
			c0-3.4-0.3-5.2-4.7-5.2h-9.4v21.8h-11V222h-9.4l-6.4-10.7h15.8V134.3 M226.6,211.3c10.8-8,14.1-19.8,14.1-28.6
			c0-5.8-1.6-20-14.1-29.9V211.3 M213.7,131.6v2.7v75h-13.8h-3.5l1.8,3l6.4,10.7l0.6,1h1.1h7.4v19.8v2h2h11h2v-2V224h7.4
			c2.7,0,2.7,0.2,2.7,3.2v16.5v2h2h11h2v-2v-16.5c0-6.9,0-14.7-9.7-17.3c3.8-4.8,9.7-14.3,9.7-28.6c0-17.6-9.8-41-37.5-49
			L213.7,131.6L213.7,131.6z M228.6,207v-49.8c9,9.2,10.1,20.6,10.1,25.5C238.7,187.4,237.6,198.4,228.6,207L228.6,207z"/>
	</g>
	<g>
		<path class="st5" d="M274.7,138.9v104.9h-11V138.9H274.7 M276.7,136.9h-2h-11h-2v2v104.9v2h2h11h2v-2V138.9V136.9L276.7,136.9z"/>
	</g>
	<g>
		<path class="st5" d="M312.4,136.2c2.7,0,9.4,0.6,13.5,6.3c4,5.8,4,10.4,4,14.9v86.4h-11V222h-13.4v21.8h-11V222h-9.4l-6.4-10.7
			h15.8v-53.9C294.6,141.4,304.6,136.2,312.4,136.2 M305.6,211.3H319v-53.9c0-3.6,0-9.7-6.7-9.7c-6.7,0-6.7,6.3-6.7,9.7V211.3
			 M312.4,134.2c-9.9,0-19.8,7.2-19.8,23.2v51.9h-13.8h-3.5l1.8,3l6.4,10.7l0.6,1h1.1h7.4v19.8v2h2h11h2v-2V224h9.4v19.8v2h2h11h2
			v-2v-86.4c0-4.6,0-9.7-4.3-16l0,0l0,0C322.9,134.9,315.4,134.2,312.4,134.2L312.4,134.2z M307.6,209.3v-51.9
			c0-5.1,0.7-7.7,4.7-7.7c4,0,4.7,2.5,4.7,7.7v51.9H307.6L307.6,209.3z"/>
	</g>
	<g>
		<path class="st5" d="M345.3,133.4l23.9,43.5v-38h11.1v104.9h-11.1v-46l-13-22.5v68.5h-11V133.4 M343.3,125.6v7.8v110.4v2h2h11h2
			v-2v-61l9,15.5v45.5v2h2h11.1h2v-2V138.9v-2h-2h-11.1h-2v2v30.2l-20.2-36.7L343.3,125.6L343.3,125.6z"/>
	</g>
	<g>
		<path class="st5" d="M395.4,133.4l23.9,43.5v-38h11.1v104.9h-11.1v-46l-13-22.5v68.5h-11V133.4 M393.4,125.6v7.8v110.4v2h2h11h2
			v-2v-61l9,15.5v45.5v2h2h11.1h2v-2V138.9v-2h-2h-11.1h-2v2v30.2l-20.2-36.7L393.4,125.6L393.4,125.6z"/>
	</g>
	<g>
		<path class="st5" d="M456.6,138.9v104.9h-11V138.9H456.6 M458.6,136.9h-2h-11h-2v2v104.9v2h2h11h2v-2V138.9V136.9L458.6,136.9z"/>
	</g>
</g>
<linearGradient id="SVGID_00000034085143384231551940000000926654180270199686_" gradientUnits="userSpaceOnUse" x1="218.6402" y1="-8.025" x2="236.475" y2="58.6905">
	<stop  offset="0" style="stop-color:#FFFFFF"/>
	<stop  offset="1" style="stop-color:#000000"/>
</linearGradient>
<path style="fill:url(#SVGID_00000034085143384231551940000000926654180270199686_);" d="M236.8,41.8c48,0,92.3,6.7,127.3,18
	l-16.3,42.4H125.8l-16.3-42.4C144.5,48.5,188.7,41.8,236.8,41.8"/>
<g>
	
		<linearGradient id="SVGID_00000181087389787612781850000004419173380361217685_" gradientUnits="userSpaceOnUse" x1="36.3502" y1="140.9054" x2="36.3502" y2="223.5163">
		<stop  offset="0" style="stop-color:#FFFFFF"/>
		<stop  offset="1" style="stop-color:#B8D8EB"/>
	</linearGradient>
	
		<linearGradient id="SVGID_00000132802961879066470350000003819605135890742438_" gradientUnits="userSpaceOnUse" x1="17.8424" y1="187.146" x2="54.858" y2="187.146">
		<stop  offset="0" style="stop-color:#FFFFFF"/>
		<stop  offset="1" style="stop-color:#B8D8EB"/>
	</linearGradient>
	
		<path style="fill:url(#SVGID_00000181087389787612781850000004419173380361217685_);stroke:url(#SVGID_00000132802961879066470350000003819605135890742438_);stroke-width:2;stroke-miterlimit:10;" d="
		M18.8,243.8V133.4l23.9,43.5v-38h11.1v104.9H42.8v-46l-13-22.5v68.5H18.8z"/>
	
		<linearGradient id="SVGID_00000119798102247758258720000004732170094198709948_" gradientUnits="userSpaceOnUse" x1="86.3828" y1="140.9054" x2="86.3828" y2="223.5163">
		<stop  offset="0" style="stop-color:#FFFFFF"/>
		<stop  offset="1" style="stop-color:#B8D8EB"/>
	</linearGradient>
	
		<linearGradient id="SVGID_00000106124934980150798720000010008141280233403536_" gradientUnits="userSpaceOnUse" x1="67.3768" y1="191.3497" x2="105.3888" y2="191.3497">
		<stop  offset="0" style="stop-color:#FFFFFF"/>
		<stop  offset="1" style="stop-color:#B8D8EB"/>
	</linearGradient>
	
		<path style="fill:url(#SVGID_00000119798102247758258720000004732170094198709948_);stroke:url(#SVGID_00000106124934980150798720000010008141280233403536_);stroke-width:2;stroke-miterlimit:10;" d="
		M68.4,154.6c0-12.2,9.3-18.3,17.9-18.3c12.7,0,18.1,10.1,18.1,18.3v73.6c0,15.5-12.8,18.3-17.8,18.3c-8.8,0-18.2-5.5-18.2-18.3
		V154.6z M79.3,225c0,3.7,0,9.7,7.3,9.7c6.8,0,6.8-6.4,6.8-9.7v-67.6c0-3.3,0-9.7-7-9.7c-7.1,0-7.1,6.6-7.1,9.7V225z"/>
	
		<linearGradient id="SVGID_00000129168153332398183480000017186099097398539952_" gradientUnits="userSpaceOnUse" x1="129.8421" y1="140.9054" x2="129.8421" y2="223.5163">
		<stop  offset="0" style="stop-color:#FFFFFF"/>
		<stop  offset="1" style="stop-color:#B8D8EB"/>
	</linearGradient>
	
		<linearGradient id="SVGID_00000044176919734505273350000003875493594155127738_" gradientUnits="userSpaceOnUse" x1="111.3343" y1="191.3495" x2="148.3499" y2="191.3495">
		<stop  offset="0" style="stop-color:#FFFFFF"/>
		<stop  offset="1" style="stop-color:#B8D8EB"/>
	</linearGradient>
	
		<path style="fill:url(#SVGID_00000129168153332398183480000017186099097398539952_);stroke:url(#SVGID_00000044176919734505273350000003875493594155127738_);stroke-width:2;stroke-miterlimit:10;" d="
		M124.3,243.8v-93.4h-12v-11.5h35v11.5h-12v93.4H124.3z"/>
	
		<linearGradient id="SVGID_00000077313354169246876690000004785780593239490995_" gradientUnits="userSpaceOnUse" x1="170.0299" y1="140.9054" x2="170.0299" y2="223.5163">
		<stop  offset="0" style="stop-color:#FFFFFF"/>
		<stop  offset="1" style="stop-color:#B8D8EB"/>
	</linearGradient>
	
		<linearGradient id="SVGID_00000059293399194541126910000002060185435530497451_" gradientUnits="userSpaceOnUse" x1="142.7179" y1="190.0087" x2="196.5799" y2="190.0087">
		<stop  offset="0" style="stop-color:#FFFFFF"/>
		<stop  offset="1" style="stop-color:#B8D8EB"/>
	</linearGradient>
	
		<path style="fill:url(#SVGID_00000077313354169246876690000004785780593239490995_);stroke:url(#SVGID_00000059293399194541126910000002060185435530497451_);stroke-width:2;stroke-miterlimit:10;" d="
		M160.3,211.3v-53.9c0-15.9,10-21.2,17.8-21.2c2.7,0,9.4,0.6,13.5,6.3c4,5.8,4,10.4,4,14.9v86.4h-11V222h-13.4v21.8h-11V222h-9.4
		l-6.4-10.7H160.3z M184.6,211.3v-53.9c0-3.6,0-9.7-6.7-9.7c-6.7,0-6.7,6.3-6.7,9.7v53.9H184.6z"/>
	
		<linearGradient id="SVGID_00000106856570800384749920000008040270864520641446_" gradientUnits="userSpaceOnUse" x1="225.7564" y1="140.9054" x2="225.7564" y2="223.5163">
		<stop  offset="0" style="stop-color:#FFFFFF"/>
		<stop  offset="1" style="stop-color:#B8D8EB"/>
	</linearGradient>
	
		<linearGradient id="SVGID_00000007414943521715190960000011408570516615058610_" gradientUnits="userSpaceOnUse" x1="198.0885" y1="188.8753" x2="252.6625" y2="188.8753">
		<stop  offset="0" style="stop-color:#FFFFFF"/>
		<stop  offset="1" style="stop-color:#B8D8EB"/>
	</linearGradient>
	
		<path style="fill:url(#SVGID_00000106856570800384749920000008040270864520641446_);stroke:url(#SVGID_00000007414943521715190960000011408570516615058610_);stroke-width:2;stroke-miterlimit:10;" d="
		M215.7,211.3v-77c25.8,7.4,36,29.3,36,47.1c0,17-8.5,26.7-11.4,29.9c11.4,1.3,11.4,8.3,11.4,15.9v16.5h-11v-16.5
		c0-3.4-0.3-5.2-4.7-5.2h-9.4v21.8h-11V222h-9.4l-6.4-10.7H215.7z M226.6,211.3c10.8-8,14.1-19.8,14.1-28.6c0-5.8-1.6-20-14.1-29.9
		V211.3z"/>
	
		<linearGradient id="SVGID_00000005960266358725469820000001772095187993591964_" gradientUnits="userSpaceOnUse" x1="269.242" y1="140.9054" x2="269.242" y2="223.5163">
		<stop  offset="0" style="stop-color:#FFFFFF"/>
		<stop  offset="1" style="stop-color:#B8D8EB"/>
	</linearGradient>
	
		<linearGradient id="SVGID_00000063632481781897571960000009078181709705180312_" gradientUnits="userSpaceOnUse" x1="262.7622" y1="191.3495" x2="275.7217" y2="191.3495">
		<stop  offset="0" style="stop-color:#FFFFFF"/>
		<stop  offset="1" style="stop-color:#B8D8EB"/>
	</linearGradient>
	
		<path style="fill:url(#SVGID_00000005960266358725469820000001772095187993591964_);stroke:url(#SVGID_00000063632481781897571960000009078181709705180312_);stroke-width:2;stroke-miterlimit:10;" d="
		M263.8,138.9h11v104.9h-11V138.9z"/>
	
		<linearGradient id="SVGID_00000149346189075880574480000011630701129437243277_" gradientUnits="userSpaceOnUse" x1="304.3999" y1="140.9054" x2="304.3999" y2="223.5163">
		<stop  offset="0" style="stop-color:#FFFFFF"/>
		<stop  offset="1" style="stop-color:#B8D8EB"/>
	</linearGradient>
	
		<linearGradient id="SVGID_00000033342210599018997440000014888072731563264943_" gradientUnits="userSpaceOnUse" x1="277.0876" y1="190.0087" x2="330.9501" y2="190.0087">
		<stop  offset="0" style="stop-color:#FFFFFF"/>
		<stop  offset="1" style="stop-color:#B8D8EB"/>
	</linearGradient>
	
		<path style="fill:url(#SVGID_00000149346189075880574480000011630701129437243277_);stroke:url(#SVGID_00000033342210599018997440000014888072731563264943_);stroke-width:2;stroke-miterlimit:10;" d="
		M294.6,211.3v-53.9c0-15.9,10-21.2,17.8-21.2c2.7,0,9.4,0.6,13.5,6.3c4,5.8,4,10.4,4,14.9v86.4h-11V222h-13.4v21.8h-11V222h-9.4
		l-6.4-10.7H294.6z M319,211.3v-53.9c0-3.6,0-9.7-6.7-9.7c-6.7,0-6.7,6.3-6.7,9.7v53.9H319z"/>
	
		<linearGradient id="SVGID_00000128464746973545712230000010373318612861641875_" gradientUnits="userSpaceOnUse" x1="362.8315" y1="140.9054" x2="362.8315" y2="223.5163">
		<stop  offset="0" style="stop-color:#FFFFFF"/>
		<stop  offset="1" style="stop-color:#B8D8EB"/>
	</linearGradient>
	
		<linearGradient id="SVGID_00000094617028128817932000000009806106940727302287_" gradientUnits="userSpaceOnUse" x1="344.3235" y1="187.146" x2="381.3395" y2="187.146">
		<stop  offset="0" style="stop-color:#FFFFFF"/>
		<stop  offset="1" style="stop-color:#B8D8EB"/>
	</linearGradient>
	
		<path style="fill:url(#SVGID_00000128464746973545712230000010373318612861641875_);stroke:url(#SVGID_00000094617028128817932000000009806106940727302287_);stroke-width:2;stroke-miterlimit:10;" d="
		M345.3,243.8V133.4l23.9,43.5v-38h11.1v104.9h-11.1v-46l-13-22.5v68.5H345.3z"/>
	
		<linearGradient id="SVGID_00000163037687644635629980000000500684820173944998_" gradientUnits="userSpaceOnUse" x1="412.9348" y1="140.9054" x2="412.9348" y2="223.5163">
		<stop  offset="0" style="stop-color:#FFFFFF"/>
		<stop  offset="1" style="stop-color:#B8D8EB"/>
	</linearGradient>
	
		<linearGradient id="SVGID_00000183214591542786621230000004965411085321484685_" gradientUnits="userSpaceOnUse" x1="394.4268" y1="187.146" x2="431.4428" y2="187.146">
		<stop  offset="0" style="stop-color:#FFFFFF"/>
		<stop  offset="1" style="stop-color:#B8D8EB"/>
	</linearGradient>
	
		<path style="fill:url(#SVGID_00000163037687644635629980000000500684820173944998_);stroke:url(#SVGID_00000183214591542786621230000004965411085321484685_);stroke-width:2;stroke-miterlimit:10;" d="
		M395.4,243.8V133.4l23.9,43.5v-38h11.1v104.9h-11.1v-46l-13-22.5v68.5H395.4z"/>
	
		<linearGradient id="SVGID_00000000902967530771542770000009151090471844536761_" gradientUnits="userSpaceOnUse" x1="451.153" y1="140.9054" x2="451.153" y2="223.5163">
		<stop  offset="0" style="stop-color:#FFFFFF"/>
		<stop  offset="1" style="stop-color:#B8D8EB"/>
	</linearGradient>
	
		<linearGradient id="SVGID_00000113339042724081588950000016918263756468377508_" gradientUnits="userSpaceOnUse" x1="444.6732" y1="191.3495" x2="457.6328" y2="191.3495">
		<stop  offset="0" style="stop-color:#FFFFFF"/>
		<stop  offset="1" style="stop-color:#B8D8EB"/>
	</linearGradient>
	
		<path style="fill:url(#SVGID_00000000902967530771542770000009151090471844536761_);stroke:url(#SVGID_00000113339042724081588950000016918263756468377508_);stroke-width:2;stroke-miterlimit:10;" d="
		M445.7,138.9h11v104.9h-11V138.9z"/>
</g>
<g>
	<g>
		
			<linearGradient id="SVGID_00000100350367663202165530000005288128835227699365_" gradientUnits="userSpaceOnUse" x1="214.9271" y1="-1.2772" x2="231.0104" y2="32.8999">
			<stop  offset="0" style="stop-color:#FFFFFF"/>
			<stop  offset="1" style="stop-color:#000000"/>
		</linearGradient>
		<path style="fill:url(#SVGID_00000100350367663202165530000005288128835227699365_);" d="M236.8,78c-0.2,0-0.4-0.1-0.5-0.3
			l-24.2-64.7c-0.1-0.2,0-0.3,0.1-0.5c0.1-0.1,0.2-0.2,0.4-0.2h24.2c0.3,0,0.5,0.2,0.5,0.5v64.7C237.3,77.7,237.1,78,236.8,78
			C236.8,78,236.8,78,236.8,78z"/>
		<path class="st1" d="M236.8,12.8v64.7l-24.2-64.7H236.8 M236.8,11.8h-24.2c-0.3,0-0.6,0.2-0.8,0.4c-0.2,0.3-0.2,0.6-0.1,0.9
			l24.2,64.7c0.1,0.4,0.5,0.6,0.9,0.6c0.1,0,0.1,0,0.2,0c0.5-0.1,0.8-0.5,0.8-1V12.8C237.8,12.2,237.3,11.8,236.8,11.8L236.8,11.8z"
			/>
	</g>
	<g>
		<path class="st0" d="M236.7,78c-0.2,0-0.4-0.3-0.4-0.5V12.8c0-0.3,0.2-0.5,0.5-0.5H261c0.2,0,0.3,0.1,0.4,0.2
			c0.1,0.1,0.1,0.3,0.1,0.5l-24.2,64.7C237.2,77.9,237,78,236.7,78C236.7,78,236.7,78,236.7,78z"/>
		<path class="st1" d="M261,12.8l-24.2,64.7V12.8H261 M261,11.8h-24.2c-0.6,0-1,0.4-1,1v64.7c0,0.5,0.3,0.9,0.8,1c0.1,0,0.1,0,0.2,0
			c0.4,0,0.8-0.3,0.9-0.6l24.2-64.7c0.1-0.3,0.1-0.7-0.1-0.9C261.6,11.9,261.3,11.8,261,11.8L261,11.8z"/>
	</g>
</g>
<g>
	<g>
		
			<linearGradient id="SVGID_00000165922725198497949310000007007104460673443973_" gradientUnits="userSpaceOnUse" x1="195.8116" y1="294.1915" x2="220.4401" y2="348.7737">
			<stop  offset="0" style="stop-color:#FFFFFF"/>
			<stop  offset="1" style="stop-color:#000000"/>
		</linearGradient>
		<path style="fill:url(#SVGID_00000165922725198497949310000007007104460673443973_);" d="M236.8,446c-0.2,0-0.4-0.1-0.5-0.3
			l-47.6-121c-0.1-0.2,0-0.3,0.1-0.5c0.1-0.1,0.2-0.2,0.4-0.2h47.6c0.3,0,0.5,0.2,0.5,0.5v121C237.3,445.7,237.1,445.9,236.8,446
			C236.8,445.9,236.8,446,236.8,446z"/>
		<path class="st1" d="M236.8,324.5v121l-47.6-121H236.8 M236.8,323.5h-47.6c-0.3,0-0.6,0.2-0.8,0.4s-0.2,0.6-0.1,0.9l47.6,121
			c0.2,0.4,0.5,0.6,0.9,0.6c0.1,0,0.1,0,0.2,0c0.5-0.1,0.8-0.5,0.8-1v-121C237.8,323.9,237.3,323.5,236.8,323.5L236.8,323.5z"/>
	</g>
	<g>
		<path class="st0" d="M236.7,445.9c-0.2,0-0.4-0.3-0.4-0.5v-121c0-0.3,0.2-0.5,0.5-0.5h47.6c0.2,0,0.3,0.1,0.4,0.2
			c0.1,0.1,0.1,0.3,0.1,0.5l-47.6,121C237.2,445.8,237,446,236.7,445.9C236.7,446,236.7,445.9,236.7,445.9z"/>
		<path class="st1" d="M284.4,324.5L284.4,324.5 M284.4,324.5l-47.6,121v-121H284.4 M284.4,323.5L284.4,323.5h-47.6
			c-0.6,0-1,0.4-1,1v121c0,0.5,0.3,0.9,0.8,1c0.1,0,0.1,0,0.2,0c0.4,0,0.8-0.2,0.9-0.6l47.6-120.9c0.1-0.1,0.1-0.3,0.1-0.4
			C285.4,323.9,285,323.5,284.4,323.5L284.4,323.5z M284.4,325.5L284.4,325.5L284.4,325.5L284.4,325.5z"/>
	</g>
</g>
<g>
	<path d="M78.2,319.3c-7.2,7.1-16.9,10.1-22.5,6.7c-1.9-1.1-3.4-4.5-4.4-7.1c-0.7-1.3,0.8-2.1,1.4-0.7c1.1,2.5,3.2,4.7,5.2,5.9
		c4.3,2.6,12.6,0.6,18.8-5.9c16.3-17.2,29-60.7,34.9-87.8c-17.2,6.9-33.7,19-43.1,30.1c-3.1,3.8-6.8,8.6-6.9,15
		c-0.1,3.2,1.4,6.1,2.5,7.7c0.5,0.8,0,1.5-0.7,0.9c-1.6-1.5-3.2-5.1-3.8-8.1c-1.1-5.4,1.6-11.1,6.5-17.5c8.7-11.2,27.1-24,46.2-32.5
		c1.1-0.4,1.9-1.2,2.2-1.9c1.1-1.6,3.7,0,3.4,1.6C109.5,259,96.6,301,78.2,319.3z"/>
	<path d="M121.3,281.7c2.9-3.4,6.9-8,8.1-11.1c2.4-5.6-1-7.9-5-4.4c-4.9,4.4-9.7,11.4-13.7,18.3l-1,2.2c-2.5,5.5-5.9,13.4-5.2,20.9
		c0.7,7.1,5,7.9,8.7,6.8c4.7-1.5,10.4-5.3,14.1-8.5c1.1-1.1,2-0.5,0.9,0.7c-2.7,3-8.2,8.2-13.6,10.3c-4.2,1.6-12-2.4-12.7-8.7
		c-1.9-17.4,12.4-40.1,22.3-45.5c5.3-3,11.8,1.6,8,8.6C130.2,275,126.9,279.2,121.3,281.7z M121.2,281.8c0-0.1,0.1-0.1,0.1-0.3
		C121.3,281.6,121.3,281.6,121.2,281.8z"/>
	<path d="M167.1,274.6c-4.8,1.8-21.2,4.9-30,6.6c-2.6,5.4-5.9,13.4-5.2,20.9c0.8,7.1,5,8,8.7,6.8c4.7-1.5,10.4-5.3,14-8.5
		c1.1-0.9,2.1-0.5,1,0.7c-2.7,3-8.3,8.2-13.6,10.3c-4.3,1.7-11.9-2.5-12.7-8.7c-2-17.5,12.5-40.1,22.1-46.2c5.1-3.3,10,4.2,8.3,9.3
		c-1.6,4.8-7.3,9.2-14.4,11.8c8-1.5,16.9-3.2,21.6-4.7c3-0.9,6.2-3.8,7.7-5.8c0.5-1.2,1.4-0.9,0.8,0.3
		C174.2,269.4,171.1,273.3,167.1,274.6z M151.8,260.8c-4.9,4.4-9.8,11.4-13.8,18.2c7.7-1.5,16.2-7.4,18.8-13.7
		C159.1,259.5,155.8,257.3,151.8,260.8z"/>
</g>
<g>
	<g>
		<path class="st19" d="M61.2,329.1c-2.4,0-4.6-0.5-6.3-1.6c-1.8-1.1-3.5-3.7-5.1-7.9c-0.4-0.9-0.4-1.9,0.1-2.6
			c0.4-0.7,1.2-1.1,1.9-1.1c1,0,1.9,0.6,2.3,1.7c1,2.3,3,4.1,4.6,5.1c0.9,0.6,2.2,0.9,3.6,0.9c4.3,0,9.3-2.5,13.2-6.5
			c14.4-15.2,26.8-53.1,33.8-83.9c-15.3,6.7-30.4,17.6-39.6,28.4c-3.1,3.7-6.4,8.2-6.6,14c-0.1,2.9,1.4,5.5,2.2,6.8
			c0.5,0.9,0.6,1.8,0.2,2.6c-0.4,0.6-1,1-1.7,1c-0.4,0-1-0.1-1.6-0.7c-2-1.9-3.7-6.1-4.3-9c-1.1-5.5,1-11.3,6.9-18.8
			c8.7-11.3,27.1-24.2,46.9-33c0.7-0.3,1.2-0.8,1.4-1.1l0.1-0.1c0.7-0.9,1.6-1.4,2.6-1.4c1.1,0,2.3,0.6,3.1,1.5
			c0.6,0.8,0.9,1.7,0.7,2.7c-12.2,49-25.4,79.9-40.1,94.6C74,325.8,67,329.1,61.2,329.1z"/>
		<path class="st0" d="M115.7,222.3c1,0,2,0.5,2.7,1.3c0.6,0.7,0.8,1.5,0.6,2.2c-12.2,48.9-25.3,79.7-40,94.3
			c-5.2,5.2-12.1,8.4-17.8,8.4c-2.3,0-4.4-0.5-6.1-1.5c-1.7-1-3.4-3.6-4.9-7.7c-0.4-0.8-0.3-1.6,0-2.2c0.3-0.5,0.9-0.9,1.5-0.9
			c0.8,0,1.5,0.5,1.9,1.4c1,2.4,3.1,4.3,4.8,5.3c1,0.6,2.3,0.9,3.8,0.9c4.4,0,9.6-2.5,13.5-6.7c14.7-15.4,27.1-53.7,34.1-85.1
			c-15.5,6.7-31.3,17.9-40.7,29c-3.2,3.8-6.5,8.4-6.7,14.3c-0.1,3,1.4,5.7,2.3,7.1c0.4,0.7,0.5,1.5,0.1,2.1
			c-0.3,0.5-0.8,0.8-1.3,0.8c0,0,0,0,0,0c-0.3,0-0.8-0.1-1.2-0.5c-1.9-1.8-3.6-5.9-4.1-8.7c-1.1-5.3,1-11,6.8-18.4
			c8.7-11.2,27-24.1,46.7-32.9c0.8-0.4,1.4-0.9,1.6-1.4l0-0.1l0-0.1C114,222.7,114.8,222.3,115.7,222.3 M115.7,221.3
			c-1.2,0-2.3,0.5-3,1.5l0,0.1l0,0.1l0,0.1l0,0.1c-0.1,0.2-0.5,0.6-1.1,0.9c-19.8,8.8-38.3,21.9-47.1,33.2c-5.9,7.7-8.1,13.6-7,19.2
			c0.6,3.1,2.3,7.2,4.4,9.2c0.7,0.7,1.4,0.8,1.9,0.8c0.9,0,1.7-0.5,2.2-1.3c0.5-0.9,0.5-2.1-0.2-3.1c-0.8-1.3-2.2-3.8-2.1-6.6
			c0.1-5.6,3.4-10,6.4-13.7c8.8-10.4,23.8-21.2,38.5-27.9c-6.9,30.6-19.2,67.8-33.4,82.7c-3.8,3.9-8.7,6.3-12.8,6.3
			c-1.3,0-2.5-0.3-3.3-0.8c-1.5-0.9-3.4-2.6-4.4-4.9c-0.5-1.2-1.6-2-2.8-2c-1,0-1.9,0.5-2.4,1.3c-0.6,0.9-0.6,2-0.1,3.1
			c1.6,4.3,3.3,7,5.3,8.1c1.9,1.1,4.1,1.7,6.6,1.7c6,0,13.1-3.3,18.5-8.7c14.8-14.7,28-45.7,40.3-94.8c0.2-1.1,0-2.2-0.8-3.1
			C118.3,221.9,117,221.3,115.7,221.3L115.7,221.3z"/>
	</g>
	<g>
		<path class="st19" d="M119.7,281.1c0-0.1,0.1-0.2,0.1-0.3l0.1-0.1l0.8,0.5l-0.4-0.2l0.4,0.2l-0.1,0.2L119.7,281.1z"/>
		<path class="st0" d="M120.3,281C120.3,281,120.3,281,120.3,281C120.3,281,120.3,281,120.3,281 M120.3,281.1c0,0.1-0.1,0.1-0.1,0.2
			C120.2,281.2,120.2,281.1,120.3,281.1 M119.4,280.5L119.4,280.5L119.4,280.5L119.4,280.5c-0.1,0.2-0.2,0.3-0.2,0.5l1.9,0.6
			c0,0,0-0.1,0-0.1l-0.1-0.1L119.4,280.5L119.4,280.5z"/>
	</g>
	<g>
		<path class="st19" d="M112.4,318.8c-5.2,0-11.6-4.5-12.2-10.6c-2-17.9,12.6-41.3,23.2-47.1c1.3-0.7,2.8-1.1,4.2-1.1
			c2.7,0,5.1,1.3,6.3,3.4c1.4,2.4,1.3,5.4-0.3,8.5c-2.7,5.1-6.5,8.8-11.4,11.1l-2,3.1l-0.7-4.2c0-0.3,0-0.6,0.1-0.9l0.2,0.1
			l-0.1-0.2l0.4-0.5c2.8-3.3,6.6-7.7,7.7-10.5c0.9-2.1,0.7-3.3,0.5-3.6c-0.1-0.1-0.2-0.2-0.5-0.2c-0.6,0-1.5,0.5-2.4,1.2
			c-4,3.6-8.5,9.6-13.3,17.9l-1,2c-2,4.4-5.8,12.6-5.1,20.1c0.4,3.8,1.8,5.7,4.5,5.7c0.6,0,1.4-0.1,2.1-0.3c4.5-1.4,10-5.2,13.4-8.2
			c0.5-0.5,1-0.8,1.6-0.9c-0.1-0.3-0.1-0.6-0.2-0.9c-2-17.7,12.5-41.2,22.9-47.8c1.1-0.7,2.3-1.1,3.4-1.1c2.1,0,4.1,1.1,5.6,3.2
			c1.9,2.7,2.6,6.2,1.6,9.1c-0.9,2.7-2.9,5.3-5.8,7.6c3.8-0.8,8.2-1.7,11-2.6c0.2-0.1,0.5-0.2,0.8-0.3c1.4-6.4,4.5-13.3,9.5-21.1
			c6.9-10.6,16-20.9,27.3-30.6c10.9-9.2,20-15,28-17.6c2-0.6,4.1-1.2,6.1-1.5c2.1-0.4,4-0.6,5.7-0.6c2.6,0,4.8,0.4,6.6,1.3l0.2-0.3
			c0.3-0.9,1.1-1.5,2.1-1.5c0.1,0,0.3,0,0.4,0c1,0.1,1.8,0.9,2,2.1c0.1,0.5,0,1-0.7,2.5c1.1,1.5,1.8,3.5,2.3,6.5
			c1.1,7-0.1,12.6-4.3,19.9c-2.9,5-6,9-9.6,12.2c-0.6,0.5-1.4,0.6-2.8,0.8l-0.1,0c-0.8,0-3.2-0.1-3.5-1.9
			c-0.7-4.6,0.5-11.3,3.6-19.4c2.2-5.8,4.5-10.8,6.9-14.9c-1.1-1.1-2.8-1.6-5.1-1.6c-1.2,0-2.7,0.2-4.2,0.5
			c-1.8,0.3-3.4,0.8-5.2,1.4c-11.7,4.7-23.9,14.3-36.4,28.5c-9.1,10.5-15.5,20.5-19,29.7c0,0,0,0.1,0.1,0.1c0.2,0.4,0.6,1.3-0.1,2.5
			c-0.3,0.5-0.8,1.3-1.6,2.3c-0.6,2.2-1.1,4.4-1.3,6.5c-0.2,1.9-0.2,3.6,0.1,5.5c0.8,5.3,3.6,9.2,8.3,11.8c3.4,1.8,7.5,2.7,12.2,2.7
			c3.1,0,6.6-0.4,10.3-1.2c10.9-2.3,21.9-7.2,32.7-14.5c9.1-6,16.1-12.4,21.6-19.3c0.1-0.4,0.2-0.8,0.3-1.2c0.2-1.1,0.3-1.9,0.2-2.5
			c0,0-0.2-0.4-0.4-0.7c-0.2-0.5-0.5-1.2-0.3-2l0.2-0.6l0.5-0.3c0.4-0.3,1.9-1.4,7-6.2c0.2-0.4,0.7-0.8,1.4-0.9c0.2,0,0.3,0,0.5,0
			c0.9,0,1.7,0.4,2.1,1.2c0.6,0.8,0.7,2.1,0.2,3c-1.9,4.1-3.5,7.5-4.6,10.4c1.8-2.7,3.9-5.6,6.3-8.5c4.2-5.2,7.5-8.6,10.1-10.4
			l0.2-0.2l0.3-0.1c1.5-0.4,2.7-0.5,3.8-0.5c0.8,0,1.6,0.1,2.2,0.3l0.3,0.1l0.2,0.2c0.2,0.1,0.3,0.3,0.4,0.4
			c4.4-7.8,10-14.4,14.8-17.5c1.1-0.7,2.3-1.1,3.4-1.1c2.1,0,4.1,1.1,5.6,3.2c1.9,2.7,2.6,6.2,1.6,9.1c-0.9,2.7-2.9,5.3-5.8,7.6
			c3.8-0.8,8.2-1.7,11-2.6c0.9-0.3,1.9-0.8,3-1.5c3.8-4.5,7.4-7.9,10.8-10.2c1.4-1,3.2-1.7,4.9-2c0.8-0.2,1.6-0.2,2.5-0.2
			c1,0,2,0.1,3.3,0.3l0.5,0c0.3,0,0.8-0.1,0.9-0.1c0.9-0.4,1.5-0.8,1.8-1.4c0.5-0.7,1.2-1.1,1.7-1.2l0.1,0c0,0,0.3,0,0.3,0
			c0.7,0,1.4,0.4,2,1c0.3,0.3,0.9,1.1,0.8,2.1l0,0.2l-0.1,0.2c-0.8,2-1.5,3.9-2.3,5.9c-2.3,5.8-4.7,11.7-6.8,17.5
			c-4.2,11.8-7.3,31.6-7.1,41.4c0,0.7,0.1,1.4,0.2,2c0.5,3.5,2.4,5.2,5.7,5.2c0.7,0,1.4-0.1,2.2-0.2c2.4-0.5,4.9-1.4,7.1-2.7
			c3.5-2,7.9-6.3,13.2-12.7c5.4-6.7,9.3-13.7,11.6-18.3c0.6-1.1,1.2-2.1,2.3-2.3l0.7-0.1l0.6,0.4c0.7,0.5,0.8,1.2,0.8,1.4
			c0.1,0.7,0,1.3-0.3,2.2c-2.1,5-5.9,12.7-12.1,20.8c-5.7,7.1-10.1,11.4-13.9,13.7c-2.3,1.3-4.5,2.2-6.7,2.6
			c-0.9,0.2-1.8,0.2-2.6,0.2c-2.4,0-4.8-0.6-7.6-1.8c-3.4-1.5-5.4-4.8-6.1-9.9c-0.9-7,1.4-25.3,3.9-35.4c0.6-2.5,1.2-4.8,1.8-6.9
			c-1.9,2.8-4.2,6-6.9,9.5c-5.7,7.3-10.5,12.7-14.7,16.6c-0.7,0.7-1.7,1.6-3.2,1.8c-0.3,0.1-0.6,0.1-0.9,0.1c-1.5,0-3.4-0.7-4.2-4
			c-2.5,2.3-6.7,5.8-10.9,7.4c-0.8,0.3-1.7,0.5-2.7,0.5c-5.2,0-11.5-4.5-12.2-10.5c-0.8-6.8,0.9-15.3,4.8-23.9
			c-0.2,0.1-0.4,0.1-0.6,0.1c-0.2,0-0.5,0-0.7-0.1c-0.1,0-0.3,0-0.4,0c-1,0-2.2,0.7-3.8,1.9c-9.5,8.3-17.4,20.7-23.4,37
			c-0.1,0.6-0.6,1.2-1.3,1.8c-1.1,0.7-2.4,1.6-3.9,3c-0.5,0.9-1.2,1-1.7,1c-0.3,0-1.3-0.1-1.8-1.3c-0.3-0.6-0.4-1.4-0.1-2.3l0-0.1
			c2.6-6.5,4.7-12.2,6.4-17.2c-4.4,4.6-9.7,9-15.6,13.2c-11.8,8.1-23.4,13.2-34.3,15c-3.1,0.5-6,0.7-8.9,0.7c-5.8,0-11.1-1-15.9-3
			c-8.3-3.5-13.1-9.2-14.3-17c-0.3-1.8-0.4-3.7-0.3-5.7c-6,1.8-20.7,4.6-28.1,6c-2.6,5.5-5.4,12.6-4.7,19.3c0.4,3.9,1.9,5.8,4.5,5.8
			c0.6,0,1.3-0.1,2.1-0.4c4.6-1.5,10.1-5.2,13.4-8.2c0.7-0.6,1.5-0.9,2.2-0.9c0.8,0,1.5,0.4,1.8,1.2c0.2,0.5,0.4,1.5-0.7,2.8
			c-3.4,3.7-9.1,8.7-14.2,10.7c-0.8,0.3-1.7,0.5-2.7,0.5c-3.8,0-8.1-2.4-10.4-5.8c0,0,0,0-0.1,0.1c-3.5,3.9-9.1,8.7-14.2,10.7
			C114.4,318.7,113.4,318.8,112.4,318.8L112.4,318.8z M292.7,253.4c-2.6,5.5-5.4,12.6-4.7,19.3c0.4,3.9,1.9,5.8,4.5,5.8
			c0.6,0,1.3-0.1,2.1-0.4c4.6-1.5,9.9-5.1,13.3-8.1c0.8-5.4,3.8-12.1,9-20c0.4-0.7,0.9-1.3,1.3-1.9
			C311.2,249.8,299.4,252.1,292.7,253.4z M155.3,260.8c-0.6,0-1.5,0.5-2.4,1.3c-3.4,3-7.3,7.9-11.3,14.2c6.2-2.3,11.8-7.1,13.7-11.6
			c0.9-2.1,0.7-3.3,0.4-3.7C155.6,260.9,155.6,260.8,155.3,260.8z M338.4,235.4c-0.3,0-0.7,0-1,0.1c-0.7,0.1-1.3,0.3-2.1,0.7
			c-1.5,0.7-3.3,2.2-5.1,4.5c-0.2,0.3-0.5,0.6-0.7,0.9c-1.5,1.9-3.2,4.4-4.8,7.3c-3.8,6.5-6.4,12.6-7.7,18.2c-0.1,0.6-0.1,1.4,0,2.2
			c0.2,1,0.4,1.2,0.4,1.2c0,0,0.1,0,0.1,0c0.1,0,0.4-0.2,0.8-0.5c7-6.9,14.5-17.7,22.8-33.2C340.8,236,339.8,235.4,338.4,235.4z
			 M309.8,231.5c-0.6,0-1.5,0.5-2.4,1.3c-3.4,3-7.3,7.9-11.3,14.2c6.2-2.3,11.8-7.1,13.7-11.6c0.9-2.1,0.7-3.3,0.4-3.7
			C310.2,231.6,310.1,231.5,309.8,231.5z M249.5,212.1c-1.8,3.3-3.3,7.1-4.6,11.3c-1.4,4.8-2.4,8.9-2.8,12.6
			c3.8-4.4,6.4-9.4,7.6-14.9c0.5-2.5,0.6-4.7,0.3-7.1C249.8,213.4,249.7,212.7,249.5,212.1z"/>
		<path class="st0" d="M252.5,199.6c0.1,0,0.2,0,0.4,0c0.8,0.1,1.5,0.7,1.6,1.7c0.1,0.4,0,0.8-0.8,2.5c1.1,1.4,1.9,3.5,2.4,6.5
			c1.1,6.8-0.1,12.3-4.2,19.6c-2.8,5-5.9,8.9-9.5,12.1c-0.5,0.4-1.1,0.5-2.5,0.6l-0.1,0c-1.9,0-2.8-0.5-3-1.5
			c-0.7-4.6,0.5-11.2,3.6-19.1c2.2-5.9,4.6-11,7-15.1c-1.1-1.4-3-2.1-5.8-2.1c-1.3,0-2.7,0.2-4.3,0.5c-1.8,0.3-3.5,0.8-5.2,1.5
			c-11.8,4.8-24.1,14.4-36.6,28.6c-9.3,10.7-15.7,20.8-19.2,30.2c0.1,0.1,0.1,0.2,0.2,0.3c0.2,0.3,0.4,1-0.1,2.1
			c-0.4,0.6-0.9,1.4-1.6,2.3c-0.6,2.3-1.1,4.5-1.4,6.7c-0.2,1.9-0.2,3.7,0.1,5.7c0.9,5.5,3.7,9.5,8.6,12.1c3.5,1.8,7.7,2.7,12.4,2.7
			c3.2,0,6.7-0.4,10.4-1.2c10.9-2.3,22-7.2,32.9-14.6c9.1-6.1,16.3-12.5,21.8-19.5c0.1-0.5,0.2-0.9,0.3-1.3c0.2-1.1,0.3-2,0.2-2.7
			c0-0.1-0.2-0.5-0.4-0.9c-0.2-0.4-0.4-1-0.2-1.7l0.1-0.4l0.4-0.2c0.5-0.3,2.2-1.7,7.1-6.3c0.2-0.3,0.5-0.6,1.1-0.8
			c0.1,0,0.3,0,0.4,0c0.7,0,1.4,0.4,1.7,0.9c0.5,0.7,0.6,1.7,0.1,2.5c-3.3,7-5.5,12.2-6.7,15.7c2.3-4.1,5.3-8.6,9.1-13.3
			c4.1-5.1,7.4-8.5,10-10.3l0.2-0.1l0.2,0c1.4-0.3,2.6-0.5,3.7-0.5c0.8,0,1.5,0.1,2.1,0.3l0.2,0.1l0.2,0.1c0.3,0.2,0.5,0.5,0.6,0.9
			c0,0.1,0,0.3,0,0.4c4.5-8.3,10.4-15.3,15.3-18.4c1-0.7,2.1-1,3.2-1c2,0,3.8,1.1,5.2,3c1.8,2.5,2.4,5.9,1.6,8.6
			c-1.1,3.2-3.7,6.2-7.5,8.7c5.3-1.1,10.3-2.1,13.3-3.1c1-0.3,2.1-0.9,3.2-1.6c3.7-4.5,7.3-7.9,10.8-10.1c1.4-1,3-1.6,4.8-2
			c0.8-0.1,1.6-0.2,2.5-0.2c1,0,2,0.1,3.2,0.3l0.5,0c0.4,0,0.9-0.1,1-0.1c1.1-0.4,1.8-1,2.1-1.6c0.3-0.5,0.9-0.8,1.4-0.9l0.1,0
			l0.2,0c0.6,0,1.1,0.3,1.6,0.8c0.2,0.3,0.7,1,0.6,1.7l0,0.1l0,0.1c-0.8,2-1.5,3.9-2.3,5.9c-2.3,5.8-4.7,11.7-6.8,17.5
			c-4.2,11.9-7.3,31.8-7.2,41.6c0,0.8,0.1,1.5,0.2,2.1c0.6,3.7,2.7,5.6,6.2,5.6c0.7,0,1.5-0.1,2.3-0.2c2.5-0.5,5-1.5,7.2-2.8
			c3.5-2.1,8-6.4,13.3-12.9c5.4-6.7,9.3-13.7,11.7-18.4c0.6-1.1,1-1.9,1.9-2l0.5-0.1l0.4,0.3c0.5,0.4,0.6,0.9,0.6,1.1
			c0.1,0.6,0,1.1-0.3,2c-2.1,5-5.8,12.6-12,20.7c-5.6,7-10,11.3-13.7,13.6c-2.2,1.3-4.4,2.1-6.6,2.5c-0.8,0.2-1.7,0.2-2.6,0.2
			c-2.3,0-4.7-0.6-7.4-1.7c-3.2-1.4-5.1-4.6-5.8-9.5c-0.9-7,1.4-25.2,3.9-35.2c0.9-3.8,1.9-7.2,2.8-10.1c-2.3,3.6-5.2,7.6-8.8,12.4
			c-5.6,7.3-10.4,12.7-14.7,16.5c-0.7,0.7-1.6,1.5-2.9,1.7c-0.3,0.1-0.6,0.1-0.8,0.1c-2.1,0-3.4-1.5-3.9-4.5
			c-3.3,3.1-7.5,6.4-11.4,8c-0.8,0.3-1.6,0.5-2.5,0.5c-5,0-11-4.3-11.7-10.1c-0.9-7.9,1.6-17,5.4-25.1c-0.6,0.6-1.2,0.9-1.7,0.9
			c-0.2,0-0.4,0-0.5-0.1c-0.2,0-0.4-0.1-0.6-0.1c-1.1,0-2.4,0.7-4.1,2.1c-9.6,8.3-17.5,20.9-23.6,37.2c-0.1,0.5-0.5,1.1-1.2,1.6
			c-1.1,0.7-2.4,1.6-3.9,3.1c-0.3,0.6-0.8,0.9-1.3,0.9c-0.3,0-1-0.1-1.3-1c-0.3-0.5-0.3-1.2-0.1-1.9l0-0.1c3-7.4,5.4-13.9,7.1-19.4
			c-4.7,5.1-10.4,10.1-17.1,14.7c-11.8,8.1-23.2,13.1-34.1,14.9c-3,0.5-6,0.7-8.8,0.7c-5.7,0-11-1-15.7-3c-8.1-3.4-12.8-9-14-16.6
			c-0.3-2-0.4-4.2-0.2-6.3c-5.4,1.8-20.4,4.7-29,6.3c-2.7,5.7-5.5,13-4.9,19.8c0.4,4.1,2.1,6.2,4.9,6.2c0.7,0,1.4-0.1,2.2-0.4
			c4.7-1.5,10.2-5.2,13.5-8.3c0.6-0.5,1.3-0.8,1.8-0.8c0.6,0,1.2,0.3,1.4,0.9c0.2,0.5,0.3,1.2-0.6,2.2c-3.3,3.6-9,8.6-14,10.6
			c-0.8,0.3-1.6,0.5-2.5,0.5c-3.8,0-8.2-2.5-10.4-6.2c-0.1,0.2-0.3,0.4-0.5,0.6c-3.5,3.8-9,8.6-14,10.6c-0.8,0.3-1.6,0.5-2.5,0.5
			c0,0,0,0,0,0c-5,0-11.1-4.3-11.7-10.1c-2-17.7,12.5-40.9,22.9-46.6c1.2-0.7,2.6-1.1,4-1.1c2.5,0,4.7,1.2,5.9,3.2
			c1.3,2.2,1.2,5.1-0.3,8c-2.7,5-6.5,8.7-11.3,10.9l-1.4,2.2l-0.5-2.9c0-0.2,0-0.5,0.1-0.7c0,0.1-0.1,0.3,0,0.4l0.7-0.1l-0.4-0.6
			l0.1-0.2c2.8-3.3,6.7-7.8,7.8-10.6c0.9-2.1,0.8-3.5,0.4-4.1c-0.2-0.3-0.5-0.4-0.9-0.4c-0.8,0-1.8,0.5-2.8,1.4
			c-4.1,3.6-8.6,9.7-13.4,18l-1,2.1c-2,4.4-5.9,12.7-5.1,20.4c0.4,4.1,2.1,6.2,5,6.2c0.7,0,1.5-0.1,2.2-0.3
			c4.6-1.5,10.2-5.2,13.6-8.3c0.5-0.5,1.2-0.8,1.8-0.8c0,0,0.1,0,0.1,0c-0.1-0.4-0.2-0.9-0.3-1.4c-2-17.5,12.4-40.8,22.6-47.3
			c1-0.7,2.1-1,3.2-1c2,0,3.8,1.1,5.2,3c1.8,2.5,2.4,5.9,1.6,8.6c-1.1,3.2-3.7,6.2-7.5,8.7c5.3-1.1,10.3-2.1,13.3-3.1
			c0.3-0.1,0.7-0.2,1-0.4c1.3-6.4,4.5-13.4,9.5-21.1c6.8-10.6,16-20.9,27.2-30.5c10.8-9.2,19.9-14.9,27.8-17.5
			c1.9-0.6,4.1-1.2,6-1.5c2-0.4,3.9-0.6,5.6-0.6c2.7,0,5,0.5,6.8,1.4l0.5-0.7C251.1,200.1,251.7,199.6,252.5,199.6 M241.5,237.6
			c4.5-4.7,7.4-10.2,8.7-16.3c0.6-2.5,0.6-4.8,0.3-7.2c-0.2-1.2-0.5-2.2-0.8-3.1c-2,3.6-3.8,7.7-5.2,12.4
			C242.8,228.8,241.9,233.5,241.5,237.6 M294.9,247.9c6.7-2.1,13.2-7.3,15.3-12.4c0.9-2.2,0.8-3.6,0.4-4.1c-0.1-0.2-0.3-0.4-0.8-0.4
			c-0.8,0-1.8,0.5-2.8,1.4C303.4,235.6,299.2,240.9,294.9,247.9 M317.3,270.8c0.1,0,0.2,0,0.3,0c0.1,0,0.6-0.2,1-0.6
			c7-6.9,14.5-17.8,22.9-33.4l0.1-0.1c-0.1-0.9-1.4-1.8-3.2-1.8c-0.4,0-0.7,0-1.1,0.1c-0.7,0.1-1.4,0.4-2.2,0.7
			c-1.6,0.8-3.4,2.3-5.3,4.6c-0.2,0.3-0.5,0.6-0.7,0.9c-1.5,2-3.2,4.4-4.9,7.3c-3.8,6.5-6.4,12.7-7.7,18.3c-0.1,0.7-0.1,1.5,0,2.4
			C316.7,270.8,317.1,270.8,317.3,270.8 M292.5,279c0.7,0,1.4-0.1,2.2-0.4c4.7-1.5,10.2-5.2,13.5-8.3c0,0,0,0,0,0
			c0.8-5.3,3.8-12,9-20c0.7-1,1.4-2.1,2.1-3c-6.5,1.8-19.3,4.2-26.9,5.7c-2.7,5.7-5.5,13-4.9,19.8C288,276.9,289.6,279,292.5,279
			 M140.4,277.2c6.7-2.1,13.2-7.3,15.3-12.4c0.9-2.2,0.8-3.6,0.4-4.1c-0.1-0.2-0.3-0.4-0.8-0.4c-0.7,0-1.8,0.5-2.8,1.4
			C148.9,264.9,144.7,270.2,140.4,277.2 M252.5,198.6c-1.1,0-2.1,0.6-2.5,1.6c-1.8-0.8-4-1.2-6.4-1.2c-1.8,0-3.7,0.2-5.8,0.6
			c-2,0.4-4.2,0.9-6.1,1.6c-8,2.7-17.2,8.5-28.2,17.7c-11.3,9.7-20.5,20-27.4,30.7c-5,7.7-8.1,14.6-9.5,21c-0.2,0.1-0.3,0.1-0.5,0.2
			c-2.3,0.7-5.8,1.5-9.1,2.2c2.2-2,3.7-4.3,4.5-6.6c1-3,0.3-6.7-1.7-9.5c-1.6-2.2-3.7-3.4-6-3.4c-1.3,0-2.5,0.4-3.7,1.1
			c-10.4,6.7-25.1,30.4-23.1,48.2c0,0.2,0,0.3,0.1,0.5c-0.5,0.2-0.9,0.5-1.4,0.9c-3.4,3-8.8,6.7-13.3,8.1c-0.7,0.2-1.3,0.3-1.9,0.3
			c-1.5,0-3.5-0.5-4-5.3c-0.7-7.4,3-15.5,5-19.8l1-2c4.8-8.2,9.2-14.1,13.2-17.7c0.9-0.8,1.7-1.1,2.1-1.1c0,0,0,0,0.1,0
			c0.1,0.3,0.3,1.3-0.5,3.1c-1.1,2.7-4.9,7.1-7.6,10.4l-0.1,0.2l-0.5,0.6l0,0c-0.1,0.4-0.2,0.7-0.1,1.1l0.5,2.9l0.4,2.6l1.4-2.2
			l1.3-1.9c4.9-2.3,8.8-6.1,11.5-11.3c1.7-3.3,1.8-6.5,0.3-9c-1.4-2.3-3.9-3.7-6.8-3.7c-1.5,0-3.1,0.4-4.5,1.2
			c-10.7,5.9-25.4,29.5-23.4,47.6c0.7,6.3,7.2,11,12.7,11c1.1,0,2-0.2,2.9-0.5c5-2,10.4-6.6,14-10.5c2.5,3.3,6.6,5.5,10.4,5.5
			c1,0,2-0.2,2.9-0.5c5.2-2.1,11-7.1,14.4-10.8c1.3-1.5,1.1-2.7,0.8-3.3c-0.4-0.9-1.3-1.5-2.3-1.5c-0.8,0-1.7,0.4-2.5,1.1
			c-3.3,3-8.6,6.6-13.2,8.1c-0.7,0.2-1.3,0.3-1.9,0.3c-0.8,0-3.4,0-4-5.3c-0.6-6.5,2.1-13.4,4.6-18.8c7.2-1.4,20.9-4,27.3-5.8
			c0,1.8,0.1,3.5,0.3,5.1c1.2,7.9,6.2,13.8,14.6,17.3c4.9,2,10.3,3.1,16.1,3.1c2.9,0,5.9-0.3,9-0.8c11-1.8,22.6-6.9,34.5-15.1
			c5.3-3.7,10.1-7.6,14.2-11.7c-1.6,4.5-3.5,9.5-5.7,15.1l0,0l0,0l0,0.1l0,0l0,0c-0.3,0.9-0.2,1.8,0.2,2.6c0.6,1.5,1.9,1.6,2.2,1.6
			c0.8,0,1.6-0.4,2.1-1.2c1.4-1.3,2.7-2.2,3.7-2.9l0,0l0,0c0.8-0.6,1.3-1.4,1.5-2.1c6-16.2,13.8-28.6,23.3-36.8
			c1.4-1.2,2.6-1.8,3.5-1.8c0.1,0,0.2,0,0.3,0c0.2,0.1,0.4,0.1,0.6,0.1c-3.6,8.4-5.2,16.7-4.5,23.4c0.8,6.3,7.3,11,12.7,11
			c1,0,2-0.2,2.9-0.5c4-1.6,7.9-4.7,10.5-7c1,3,2.9,3.6,4.4,3.6c0.3,0,0.7,0,1-0.1c1.6-0.3,2.7-1.2,3.4-2c4.3-3.9,9.1-9.3,14.8-16.6
			c2-2.6,3.7-4.9,5.2-7.1c-0.3,1.3-0.7,2.6-1,4c-2.5,10.1-4.8,28.5-3.9,35.5c0.7,5.2,2.8,8.7,6.3,10.3c2.9,1.2,5.3,1.8,7.8,1.8
			c0.9,0,1.8-0.1,2.7-0.3c2.3-0.4,4.6-1.3,6.9-2.7c3.9-2.4,8.3-6.7,14-13.8c6.3-8.1,10.1-15.9,12.2-20.9c0.4-1,0.5-1.7,0.4-2.5
			c-0.1-0.7-0.4-1.3-1-1.7l-0.4-0.3l-0.4-0.3l-0.4,0.1l-0.5,0.1c-1.4,0.3-2,1.4-2.6,2.5c-2.3,4.7-6.2,11.7-11.6,18.3
			c-5.2,6.4-9.6,10.6-13,12.6c-2.1,1.3-4.6,2.2-6.9,2.6c-0.7,0.1-1.4,0.2-2.1,0.2c-3.1,0-4.7-1.5-5.2-4.8c-0.1-0.6-0.2-1.3-0.2-2
			c-0.1-9.7,2.9-29.5,7.1-41.3c2.1-5.8,4.5-11.7,6.8-17.5c0.8-2,1.6-3.9,2.3-5.9l0-0.1l0-0.1l0-0.1l0-0.1c0.2-1.1-0.5-2-0.9-2.5
			c-0.7-0.8-1.5-1.2-2.4-1.2l-0.2,0l-0.1,0l-0.1,0l-0.1,0c-0.6,0.1-1.5,0.5-2.1,1.4l0,0l0,0c-0.2,0.4-0.7,0.8-1.6,1.2
			c-0.2,0-0.6,0.1-0.8,0.1l-0.4,0c-1.3-0.2-2.3-0.3-3.3-0.3c-0.9,0-1.8,0.1-2.6,0.2c-1.9,0.4-3.6,1.1-5.1,2.1
			c-3.5,2.2-7.1,5.7-10.9,10.2c-1,0.7-2,1.2-2.8,1.4c-2.3,0.7-5.8,1.5-9.1,2.2c2.2-2,3.7-4.3,4.5-6.6c1-3,0.3-6.7-1.7-9.5
			c-1.6-2.2-3.7-3.4-6-3.4c-1.3,0-2.5,0.4-3.7,1.1c-4.7,3-10.3,9.5-14.7,17.1c0,0,0,0,0,0l-0.2-0.1l-0.1-0.1l-0.2-0.1l-0.2-0.1
			c-0.7-0.2-1.5-0.3-2.4-0.3c-1.1,0-2.4,0.2-3.9,0.5l-0.2,0l-0.2,0l-0.2,0.1l-0.2,0.1c-2.7,1.8-6,5.3-10.2,10.5
			c-1.2,1.5-2.4,3-3.4,4.4c0.8-1.8,1.7-3.7,2.7-5.8c0.6-1.1,0.5-2.5-0.2-3.5c-0.5-0.9-1.5-1.4-2.5-1.4c-0.2,0-0.4,0-0.6,0.1
			c-0.9,0.2-1.4,0.7-1.7,1.1c-5.3,4.9-6.6,5.9-6.9,6.1l-0.4,0.2l-0.3,0.2l-0.1,0.4l-0.1,0.4c-0.3,1,0,1.9,0.3,2.4
			c0.1,0.2,0.3,0.5,0.3,0.7c0.1,0.5,0,1.3-0.2,2.2c-0.1,0.3-0.2,0.7-0.2,1.1c-5.4,6.9-12.4,13.2-21.4,19.2
			c-10.8,7.3-21.7,12.2-32.5,14.5c-3.7,0.8-7.1,1.2-10.2,1.2c-4.6,0-8.6-0.9-12-2.6c-4.6-2.5-7.2-6.2-8.1-11.4
			c-0.3-1.9-0.3-3.5-0.1-5.4c0.2-2,0.7-4.1,1.3-6.3c0.6-0.8,1.2-1.5,1.6-2.2l0,0l0,0c0.7-1.4,0.4-2.4,0.1-2.9
			c3.5-9.1,9.8-19,18.8-29.4c12.4-14.1,24.6-23.7,36.2-28.4c1.7-0.6,3.3-1.1,5.1-1.4c1.5-0.3,2.9-0.4,4.1-0.4c2,0,3.5,0.4,4.5,1.2
			c-2.3,4.1-4.6,9-6.7,14.6c-3.1,8.1-4.4,14.9-3.7,19.6c0.2,1.5,1.6,2.2,3.9,2.3l0,0l0,0l0.1,0c1.6-0.1,2.4-0.3,3.1-0.9l0,0l0,0
			c3.6-3.2,6.8-7.3,9.7-12.3c4.2-7.5,5.4-13.2,4.3-20.3c-0.5-2.9-1.1-5-2.2-6.5c0.7-1.4,0.7-2,0.7-2.6c-0.2-1.4-1.2-2.4-2.5-2.5
			C252.8,198.6,252.7,198.6,252.5,198.6L252.5,198.6z M242.9,234.4c0.5-3.2,1.3-6.8,2.5-10.8c1.1-3.7,2.4-7,3.9-10.1
			c0,0.2,0.1,0.4,0.1,0.6c0.4,2.3,0.3,4.5-0.3,6.9C248.2,225.9,246.1,230.4,242.9,234.4L242.9,234.4z M297.4,245.9
			c3.7-5.6,7.2-10,10.3-12.8c1-0.8,1.7-1.1,2.1-1.1c0,0,0,0,0,0c0.1,0.3,0.2,1.3-0.5,3.2C307.7,239.2,302.9,243.4,297.4,245.9
			L297.4,245.9z M317.4,267.1c1.3-5.5,3.9-11.6,7.6-18c1.7-2.8,3.3-5.3,4.8-7.2c0.3-0.3,0.5-0.6,0.8-0.9c1.8-2.1,3.4-3.6,4.9-4.3
			c0.7-0.3,1.3-0.5,2-0.7c0.3-0.1,0.6-0.1,0.9-0.1c1.1,0,1.8,0.4,2.1,0.7c-8.3,15.3-15.7,26.1-22.6,32.9c-0.1,0.1-0.2,0.2-0.3,0.2
			c0-0.1-0.1-0.3-0.1-0.6C317.3,268.4,317.3,267.7,317.4,267.1L317.4,267.1z M293.1,253.8c6.3-1.2,17-3.2,23.9-4.9
			c-0.2,0.3-0.4,0.6-0.6,0.8c-5.2,7.9-8.2,14.6-9.1,20c-3.3,2.9-8.5,6.4-12.9,7.9c-0.7,0.2-1.3,0.3-1.9,0.3c-0.8,0-3.4,0-4-5.3
			C287.9,266.1,290.6,259.2,293.1,253.8L293.1,253.8z M142.8,275.2c3.7-5.6,7.2-10,10.3-12.8c1-0.8,1.7-1.1,2.1-1.1c0,0,0,0,0,0
			c0.1,0.3,0.2,1.3-0.5,3.2C153.1,268.5,148.3,272.7,142.8,275.2L142.8,275.2z"/>
	</g>
	<g>
		<path class="st19" d="M343.7,274.8c-0.8,0-1.5-0.5-1.9-1.5c-0.3-1-0.4-1.6-0.4-2.3c0-0.6,0.2-1.3,0.5-2.2c0.1-0.3,0.2-0.7,0.3-1.1
			c1.4-4.6,3.7-10.6,7.1-18.2c3.2-7.3,5.9-12.8,8-15.9c0.9-1.1,2.9-2.8,4.5-2.8c0.4,0,0.7,0.1,1,0.2c0.6,0.3,1,0.7,1.1,1.3
			c0.2,0.9-0.3,1.7-0.8,2.3c-0.6,0.6-2.3,3.7-3.5,6c-1.6,2.8-3,5.8-4.2,8.9c3.1-4.3,6.8-8.4,11.1-12.6c4.1-4,7.5-6,10.1-6
			c0.3,0,0.5,0,0.8,0.1c0.7,0.1,2.4,0.5,2.7,2.9c0.3,1.7-0.5,5.2-2.9,13.8c8.2-11.1,15.8-19.3,22.6-24.6c0.6-0.5,1.2-0.8,1.8-0.9
			c0.3-0.1,0.6-0.1,0.8-0.1c1,0,1.7,0.4,2,0.8c0.9,0.9,0.9,2.2,0.9,3.1l0,0.5l-0.3,0.4c-0.2,0.3-0.5,0.8-0.8,1.3
			c-0.2,0.5-0.5,0.9-0.8,1.4c-1.9,7.8-4.6,16.6-8.2,26c-0.1,0.2-0.2,0.5-0.3,0.8c0,0,0,0,0,0c4.9-3.7,11.4-7.8,19.1-12.1
			c11.2-6.2,20.4-10.2,28-12.1c3.4-0.9,6.4-1.3,9.2-1.3c2.8,0,5.4,0.5,7.7,1.4c5,2,7.9,5.2,8.5,9.5c0.2,1.3,0.2,2.5,0,3.7
			c-0.3,2.1-1.3,3.7-2.9,4.8c-0.5,0.5-1.2,1-2,1.2c-0.2,0-0.3,0-0.4,0c-1.1,0-1.9-0.9-2-1.7c-0.1-0.9,0.3-1.5,0.6-1.9
			c0.4-0.5,1-1.4,1.4-3.3c0.2-1.1,0.4-2.1,0.2-2.9c-0.4-2.3-1.7-3.9-4.1-5c-1.7-0.8-3.8-1.3-6.2-1.3c-1.5,0-3.1,0.2-4.9,0.5
			c-1.1,0.2-2.4,0.6-3.6,0.9c-10.4,3.2-20.7,7.9-30.5,13.9c-10.4,6.3-18.8,13.3-25.2,20.7c-0.4,0.5-0.9,0.9-1.9,1.1
			c-0.2,0-0.5,0.1-0.7,0.1c-1.4,0-2.5-1-2.8-2.5c-0.1-0.7,0-1.4,0.4-2l1.7-2.7c-0.2-0.8-0.3-1.8-0.1-2.8l0-0.3l0.1-0.3
			c4.6-9,7.7-17.4,9.1-24.9l0-0.1c0.3-1,0.4-1.9,0.2-2.7c0-0.1,0-0.2-0.1-0.3c-0.2,0.1-0.5,0.3-1,0.9c-9.3,11.4-15.2,19.8-17.5,25
			c-0.4,0.9-1.5,1.9-3,2.9c-0.6,0.5-1.2,0.9-1.7,1.2c-0.7,0.5-1.3,0.9-1.5,1.2l-0.1,0.1c-0.5,0.4-1,0.6-1.6,0.6
			c-1.2,0-2.3-0.8-2.8-1.7c-0.5-0.8-0.5-1.7-0.1-2.5c3.4-7.8,5.4-14.6,6.1-20.6l0-0.1c0.2-0.8,0.1-1.5,0.1-1.8
			c0-0.2-0.1-0.4-0.1-0.5c-0.1,0-0.3,0.1-0.8,0.4c-0.6,0.4-2.5,2.1-6.5,7.4c-3.6,4.5-6.7,9-9.1,13.3c-1.3,2.1-2.7,5.2-4.7,9.8
			c-0.3,0.6-0.9,1.3-3,2.8c-1.3,0.8-2,1.4-2.3,1.7l-0.1,0.1C344.4,274.7,344,274.8,343.7,274.8z"/>
		<path class="st0" d="M402.5,222.8c0.9,0,1.4,0.4,1.7,0.7c0.7,0.8,0.8,2,0.8,2.8l0,0.3l-0.2,0.3c-0.2,0.3-0.5,0.8-0.8,1.4
			c-0.2,0.4-0.5,0.9-0.8,1.4c-1.9,7.8-4.6,16.6-8.2,26c-0.2,0.4-0.5,1.5-0.6,2.1c0.1-0.1,0.2-0.2,0.4-0.3c0.2-0.1,0.4-0.3,0.7-0.5
			c4.9-3.7,11.4-7.8,19.1-12.1c11.2-6.2,20.3-10.2,27.9-12.1c3.4-0.8,6.3-1.2,9-1.2c2.8,0,5.3,0.5,7.5,1.3c4.8,1.9,7.6,5,8.2,9.1
			c0.2,1.2,0.2,2.4,0,3.5c-0.3,1.9-1.2,3.5-2.7,4.5c-0.5,0.5-1.1,0.9-1.8,1.1c-0.1,0-0.2,0-0.3,0c-0.8,0-1.4-0.6-1.5-1.2
			c-0.1-0.7,0.2-1.1,0.5-1.6c0.4-0.5,1-1.4,1.5-3.5c0.2-1.2,0.4-2.2,0.2-3.1c-0.4-2.4-1.8-4.2-4.4-5.4c-1.8-0.9-3.9-1.3-6.4-1.3
			c-1.5,0-3.2,0.2-5,0.5c-1.1,0.2-2.4,0.6-3.7,0.9c-10.5,3.2-20.8,7.9-30.7,14c-10.4,6.3-18.9,13.3-25.3,20.8
			c-0.4,0.4-0.8,0.8-1.6,0.9c-0.2,0-0.4,0.1-0.6,0.1c-1.2,0-2.1-0.8-2.3-2.1c-0.1-0.6,0-1.2,0.4-1.7l1.9-2.9
			c-0.3-0.8-0.3-1.8-0.2-2.9l0-0.2l0.1-0.2c4.7-9,7.8-17.4,9.2-25.1l0-0.1c0.3-1,0.4-2,0.2-2.9c-0.1-0.7-0.3-0.8-0.3-0.8
			c0,0-0.1,0-0.1,0c-0.1,0-0.1,0-0.1,0c-0.3,0.1-0.8,0.4-1.4,1.1c-9.4,11.4-15.3,19.9-17.6,25.1c-0.3,0.8-1.4,1.8-2.8,2.6
			c-0.6,0.5-1.2,0.9-1.7,1.2c-0.7,0.5-1.3,0.9-1.6,1.2l0,0.1l-0.1,0c-0.3,0.3-0.7,0.4-1.2,0.4c-1,0-1.9-0.7-2.3-1.4
			c-0.4-0.7-0.4-1.4-0.1-2c3.4-7.9,5.4-14.7,6.2-20.8l0-0.1c0.2-0.9,0.1-1.6,0.1-1.9c-0.1-0.6-0.3-0.9-0.5-0.9c-0.1,0-0.1,0-0.2,0
			c-0.2,0-0.5,0.2-1,0.5c-0.7,0.5-2.6,2.3-6.7,7.5c-3.6,4.6-6.7,9.1-9.1,13.4c-1.3,2.1-2.7,5.2-4.7,9.9c-0.2,0.5-0.8,1.2-2.8,2.5
			c-1.3,0.8-2,1.5-2.3,1.8l0,0.1l-0.1,0c-0.3,0.3-0.7,0.3-0.9,0.3c-0.9,0-1.3-0.9-1.4-1.2c-0.3-0.9-0.4-1.4-0.3-2.1
			c0-0.5,0.2-1.2,0.5-2.1c0.1-0.3,0.2-0.7,0.3-1.1c1.4-4.6,3.7-10.5,7.1-18.1c3.1-7.2,5.9-12.7,7.9-15.9c0.8-1.1,2.7-2.6,4.1-2.6
			c0.3,0,0.5,0.1,0.8,0.2c0.4,0.2,0.7,0.6,0.8,1c0.2,0.7-0.3,1.4-0.7,1.9c-0.6,0.6-2.2,3.6-3.6,6c-2.2,3.9-4,8.1-5.5,12.5
			c3.6-5.4,7.9-10.5,13.2-15.6c4-3.9,7.3-5.8,9.7-5.8c0.2,0,0.5,0,0.7,0.1c0.7,0.1,2,0.5,2.3,2.5c0.3,1.6-0.5,5.3-3,13.9l0,0.1
			c-0.2,0.6-0.3,1.1-0.3,1.5c0,0,0,0.1,0,0.1c0,0,0.1-0.1,0.1-0.1c8.6-11.8,16.5-20.6,23.6-26c0.5-0.4,1.1-0.7,1.6-0.8
			C402,222.8,402.3,222.8,402.5,222.8 M402.5,221.8c-0.3,0-0.6,0-0.9,0.1c-0.7,0.1-1.4,0.5-2.1,1c-6.4,4.9-13.5,12.5-21.1,22.5
			c1.9-6.8,2.5-9.8,2.2-11.4c-0.4-2.8-2.5-3.3-3.2-3.4c-0.3,0-0.5-0.1-0.8-0.1c-2.7,0-6.1,2-10.4,6.1c-3.3,3.2-6.2,6.3-8.8,9.6
			c0.8-1.8,1.7-3.6,2.7-5.3c1.1-2,2.9-5.3,3.4-5.8l0,0l0,0c0.6-0.7,1.2-1.6,0.9-2.8c-0.2-0.7-0.7-1.3-1.4-1.7
			c-0.4-0.2-0.8-0.3-1.2-0.3c-1.8,0-4,1.7-4.9,3l0,0l0,0c-2.1,3.2-4.9,8.7-8,16c-3.4,7.6-5.7,13.6-7.1,18.2
			c-0.1,0.4-0.2,0.8-0.3,1.1c-0.3,1-0.5,1.7-0.5,2.4c-0.1,0.7,0,1.4,0.4,2.4l0,0l0,0c0.6,1.5,1.6,1.8,2.3,1.8c0.4,0,0.9-0.1,1.5-0.5
			l0.1,0l0,0l0,0l0-0.1c0.3-0.3,1-0.9,2.2-1.6c2.3-1.5,2.9-2.3,3.2-3c2-4.6,3.4-7.7,4.7-9.7c2.4-4.3,5.5-8.7,9.1-13.3
			c3.9-5.1,5.8-6.8,6.4-7.3c0,0,0.1,0,0.1-0.1c0,0.3,0,0.8-0.1,1.3l0,0.2c-0.8,6-2.8,12.7-6.1,20.5c-0.5,0.9-0.4,2,0.2,2.9
			c0.6,1,1.8,1.9,3.2,1.9c0.7,0,1.3-0.2,1.8-0.6l0,0l0.1,0l0.1-0.1l0-0.1c0.2-0.2,0.8-0.6,1.4-1.1c0.5-0.4,1.1-0.8,1.7-1.2
			c1.6-1,2.7-2.1,3.1-3.1c2.2-5.1,8.1-13.5,17.4-24.9c0.1-0.1,0.1-0.2,0.2-0.2c0,0.6-0.1,1.2-0.3,1.9l0,0.1
			c-1.4,7.6-4.5,15.9-9.1,24.8l-0.1,0.2l-0.1,0.2l0,0.2l0,0.2c-0.1,1-0.1,2,0.1,2.8l-1.6,2.5c-0.5,0.7-0.7,1.5-0.5,2.4
			c0.3,1.8,1.6,2.9,3.3,2.9c0.3,0,0.5,0,0.8-0.1c1.1-0.2,1.7-0.7,2.1-1.2l0,0l0,0c6.3-7.4,14.8-14.3,25.1-20.6
			c9.8-6,20-10.7,30.4-13.9c1.2-0.3,2.4-0.7,3.6-0.9c1.7-0.3,3.3-0.5,4.8-0.5c2.3,0,4.3,0.4,5.9,1.2c2.4,1.1,3.5,2.6,3.9,4.7
			c0.1,0.7,0,1.6-0.2,2.7c-0.4,1.9-1,2.6-1.3,3.1c-0.3,0.5-0.9,1.2-0.7,2.3c0.2,1,1.1,2.1,2.5,2.1c0.2,0,0.3,0,0.5,0
			c1-0.2,1.7-0.7,2.3-1.3c1.7-1.2,2.7-2.9,3-5.1c0.2-1.2,0.2-2.5,0-3.8c-0.7-4.5-3.7-7.8-8.8-9.9c-2.3-0.9-5-1.4-7.9-1.4
			c-2.8,0-5.8,0.4-9.3,1.3c-7.6,1.9-16.8,5.9-28.1,12.2c-7.1,4-13.1,7.7-17.9,11.2c3.4-9.1,6.1-17.6,7.9-25.3
			c0.3-0.5,0.5-0.9,0.7-1.3c0.3-0.6,0.6-1,0.8-1.4l0.2-0.3l0.2-0.2l0-0.3l0-0.3c0-1-0.1-2.5-1.1-3.5
			C404.5,222.3,403.7,221.8,402.5,221.8L402.5,221.8z"/>
	</g>
</g>
</svg>
